<?xml version="1.0" encoding="UTF-8"?>
<svg width="1440px" height="1024px" viewBox="0 0 1440 1024" version="1.1" xmlns="http://www.w3.org/2000/svg" xmlns:xlink="http://www.w3.org/1999/xlink">
    <!-- Generator: Sketch 59.1 (86144) - https://sketch.com -->
    <title>Achtergrond</title>
    <desc>Created with Sketch.</desc>
    <g id="Achtergrond" stroke="none" stroke-width="1" fill="none" fill-rule="evenodd">
        <rect id="Rectangle" fill="#243355" x="0" y="0" width="1440" height="1024"></rect>
        <g id="noun_Ninja_1737337" transform="translate(418.000000, 220.000000)" fill="#021130" fill-rule="nonzero" opacity="0.201055618">
            <path d="M1171.37706,0 C1127.44416,0 1091.36967,30.9540327 1074.45915,61.5018527 C1043.86946,116.146899 1041.67992,181.099985 1013.45579,231.742735 C907.430974,99.3347343 754.251539,15.7446758 582.491114,15.7446758 C257.597085,15.7446758 0,315.639814 0,677.021375 C0,762.938654 14.762221,845.302203 41.3253391,921.064008 C13.0835759,1031.36019 8.73928271,1122.74071 26.566267,1199.05515 C44.6346096,1276.40402 86.7943953,1337.08085 142.670983,1379.13646 C254.424474,1463.24137 412.889391,1480 573.635639,1480 C732.233137,1480 893.890817,1475.10183 1011.97993,1396.84922 C1071.0244,1357.71898 1116.90863,1297.9758 1136.93995,1218.24476 C1156.83447,1139.05849 1153.16119,1041.67295 1124.14875,920.079966 C1150.48405,844.59999 1164.98224,762.551335 1164.98224,677.021375 C1164.98224,615.61525 1157.27735,556.08778 1143.33556,499.402224 C1167.94561,450.343388 1183.51787,441.592497 1192.53252,438.882839 C1202.09585,436.007861 1222.70609,440.850923 1260.91613,440.850923 C1305.44557,440.850923 1339.60888,405.571828 1349.47056,370.983924 C1359.33225,336.39602 1353.86886,296.174671 1325.36401,266.182638 C1298.68596,238.114605 1267.80421,235.915074 1239.26961,236.170137 C1254.01089,222.516355 1269.0321,208.579167 1281.5788,192.381045 C1294.91538,175.157944 1308.14522,155.226759 1308.14522,125.957407 C1308.14522,92.3629918 1296.43863,57.5955986 1270.75546,33.94867 C1239.78948,11.4747197 1202.47403,0.324340322 1171.37706,0 L1171.37706,0 Z M582.09345,113.846154 C847.971031,113.846154 1069.28037,363.457045 1069.28037,679.914609 C1069.28037,996.372015 847.971031,1245.98291 582.09345,1245.98291 C316.217614,1245.98291 94.9065421,996.372015 94.9065421,679.914609 C94.9065421,541.465034 137.452315,415.815203 207.372035,318.259649 C279.477188,291.082089 416.07329,223.605194 529.544035,223.424366 C470.606334,199.448236 384.719199,194.537595 310.015258,210.156358 C388.031847,149.189247 482.03094,113.846154 582.09345,113.846154 L582.09345,113.846154 Z M585.257001,360.512821 C365.390183,360.512821 145.523364,486.285606 145.523364,643.501903 C145.523364,769.274847 239.752001,910.769231 349.685489,910.769231 C428.209274,910.769231 522.43791,832.16124 585.257001,832.16124 C648.076092,832.16124 742.304745,910.769231 820.82853,910.769231 C930.762018,910.769231 1024.99065,769.274847 1024.99065,643.501903 C1024.99065,486.285606 805.123836,360.512821 585.257001,360.512821 Z M316.35514,550.25641 C332.172818,550.25641 506.168224,612.354143 506.168224,627.878576 L473.049684,623.027191 C483.879491,633.11652 490.350388,645.662125 490.350388,658.927753 C490.350388,693.222778 447.859282,721.025641 395.443846,721.025641 C343.02841,721.025641 300.537304,693.222778 300.537304,658.927753 C300.537304,636.291577 319.343497,616.413782 347.00197,605.562203 L284.719626,596.82971 C284.719626,581.305277 300.537304,550.25641 316.35514,550.25641 Z M847.831778,550.25641 C863.649613,550.25641 879.46729,581.305277 879.46729,596.82971 L817.679292,605.562203 C845.271324,616.423097 863.649613,636.324178 863.649613,658.927753 C863.649613,693.222778 821.15851,721.025641 768.743078,721.025641 C716.327645,721.025641 673.836542,693.222778 673.836542,658.927753 C673.836542,645.662125 680.307439,633.11652 691.137245,623.027191 L658.018692,627.878576 C658.018692,612.354143 832.014101,550.25641 847.831778,550.25641 L847.831778,550.25641 Z M115.260514,1065.7265 C220.558485,1229.93841 390.675966,1337.80943 585.0219,1337.80943 C779.230881,1337.80943 949.468189,1230.23494 1054.7833,1066.21861 C1058.90383,1117.73456 1055.97214,1160.20158 1047.41249,1194.37362 C1032.6111,1253.46372 1003.86568,1289.71306 961.912021,1317.60116 C878.004695,1373.37107 731.393242,1385.12821 576.176986,1385.12821 C423.105535,1385.12821 282.569908,1363.94675 202.235238,1303.30616 C162.067981,1272.98587 135.029398,1234.57565 121.648489,1177.12277 C114.444522,1146.19049 112.108827,1109.09415 115.260514,1065.7265 L115.260514,1065.7265 Z" id="Shape"></path>
        </g>
    </g>
</svg>