<?xml version="1.0" encoding="UTF-8"?>
<svg width="167px" height="181px" viewBox="0 0 167 181" version="1.1" xmlns="http://www.w3.org/2000/svg" xmlns:xlink="http://www.w3.org/1999/xlink">
    <!-- Generator: Sketch 59.1 (86144) - https://sketch.com -->
    <title>Shape</title>
    <desc>Created with Sketch.</desc>
    <g id="Page-1" stroke="none" stroke-width="1" fill="none" fill-rule="evenodd">
        <g id="Logo-(Responsive)" transform="translate(-56.000000, -42.000000)" fill="#FFFFFF" fill-rule="nonzero">
            <g id="noun_Ninja_1737337" transform="translate(56.000000, 42.000000)">
                <path d="M144.475604,0 C139.056998,0 134.607633,3.78559454 132.521919,7.52151037 C128.74904,14.2044518 128.478985,22.1480387 124.99787,28.3415101 C111.920955,12.1483695 93.0280701,1.9255313 71.8434387,1.9255313 C31.7715755,1.9255313 0,38.6018962 0,82.7978844 C0,93.3053354 1.82074661,103.378175 5.0969953,112.643639 C1.61370545,126.132563 1.0778879,137.308154 3.27663706,146.641205 C5.50515495,156.100762 10.7050694,163.521375 17.5967904,168.664661 C31.3802712,178.950464 50.9250578,181 70.7512199,181 C90.3123589,181 110.250935,180.400967 124.81584,170.830884 C132.098283,166.045361 137.757563,158.738933 140.228192,148.988042 C142.681947,139.303775 142.228891,127.393786 138.650547,112.523293 C141.898697,103.292296 143.686879,93.2579674 143.686879,82.7978844 C143.686879,75.2880813 142.736571,68.0080326 141.017015,61.0755422 C144.052376,55.0757792 145.973031,54.0055689 147.084882,53.674185 C148.264407,53.322583 150.806438,53.9148764 155.519198,53.9148764 C161.011381,53.9148764 165.225024,49.6003384 166.441347,45.3703313 C167.65767,41.1403241 166.983825,36.2213618 163.468087,32.5534173 C160.177663,29.1207726 156.368762,28.8517759 152.849353,28.8829695 C154.667517,27.2131488 156.520207,25.5086685 158.067695,23.5276819 C159.712606,21.4213432 161.344352,18.9838131 161.344352,15.4042504 C161.344352,11.2957443 159.900481,7.04378605 156.732763,4.15183059 C152.913473,1.40332721 148.311051,0.0396659448 144.475604,0 L144.475604,0 Z M71.7943916,13.9230769 C104.587269,13.9230769 131.883178,44.4498143 131.883178,83.151719 C131.883178,121.853605 104.587269,152.380342 71.7943916,152.380342 C39.0017293,152.380342 11.7056075,121.853605 11.7056075,83.151719 C11.7056075,66.2197102 16.953129,50.8530755 25.5769053,38.9222949 C34.4702292,35.5985527 51.3177544,27.3463109 65.3130383,27.3241962 C58.0437649,24.3919802 47.4505954,23.7914221 38.2367416,25.7015546 C47.8591717,18.2454417 59.4528559,13.9230769 71.7943916,13.9230769 L71.7943916,13.9230769 Z M72.1845785,44.0897436 C45.0665883,44.0897436 17.9485981,59.4714154 17.9485981,78.6985436 C17.9485981,94.0802346 29.5705939,111.384615 43.1295987,111.384615 C52.8145855,111.384615 64.4365813,101.771071 72.1845785,101.771071 C79.9325757,101.771071 91.5545734,111.384615 101.23956,111.384615 C114.798565,111.384615 126.420561,94.0802346 126.420561,78.6985436 C126.420561,59.4714154 99.3025706,44.0897436 72.1845785,44.0897436 Z M39.0186916,67.2948718 C40.9696164,67.2948718 62.4299065,74.8892567 62.4299065,76.7878529 L58.3451235,76.1945416 C59.680853,77.4284393 60.4789622,78.9627328 60.4789622,80.5850833 C60.4789622,84.7792722 55.2381833,88.1794872 48.7733547,88.1794872 C42.3085262,88.1794872 37.0677473,84.7792722 37.0677473,80.5850833 C37.0677473,77.8167402 39.3872703,75.3857396 42.7986182,74.0586208 L35.1168224,72.9906605 C35.1168224,71.0920642 37.0677473,67.2948718 39.0186916,67.2948718 Z M104.570094,67.2948718 C106.521038,67.2948718 108.471963,71.0920642 108.471963,72.9906605 L100.851139,74.0586208 C104.254292,75.3868787 106.521038,77.8207272 106.521038,80.5850833 C106.521038,84.7792722 101.280259,88.1794872 94.8154313,88.1794872 C88.3506032,88.1794872 83.1098247,84.7792722 83.1098247,80.5850833 C83.1098247,78.9627328 83.9079338,77.4284393 85.2436632,76.1945416 L81.1588785,76.7878529 C81.1588785,74.8892567 102.619169,67.2948718 104.570094,67.2948718 L104.570094,67.2948718 Z M14.2160309,130.33547 C27.2032991,150.418143 48.1852927,163.610478 72.1555814,163.610478 C96.1089787,163.610478 117.105752,150.454408 130.095134,130.395654 C130.603353,136.695916 130.241764,141.889517 129.186031,146.068665 C127.360454,153.295226 123.815044,157.728421 118.640552,161.139061 C108.291569,167.95957 90.2087676,169.397436 71.0646652,169.397436 C52.1850992,169.397436 34.8516799,166.807001 24.9433418,159.390821 C19.9891824,155.682731 16.6542906,150.985265 15.0039127,143.958933 C14.1153879,140.175999 13.8273073,135.639217 14.2160309,130.33547 L14.2160309,130.33547 Z" id="Shape"></path>
            </g>
        </g>
    </g>
</svg>